<svg xmlns="http://www.w3.org/2000/svg" viewBox="0 0 500 500"><rect width="500" height="499.48" fill="#ebebeb"/><path d="M496.86,0q1.59,2.28,3.14,4.59V0Z" fill="#fff" opacity="0.53"/><path d="M143.13,500H343A339.21,339.21,0,0,0,500,396.76V348.49A309.3,309.3,0,0,1,0,367.6V412A338.91,338.91,0,0,0,143.13,500Z" fill="#fff" opacity="0.53"/><path d="M72.15,0q16.18,6,33.74,10.74c1.19-3.64,2.43-7.21,3.69-10.74Z" fill="#fff" opacity="0.53"/><path d="M0,39.06V161.82H81.54c1-44.24,6.71-85.72,16.19-122.85-28.52-7.8-54.81-17.9-78-30A279.56,279.56,0,0,0,0,39.06Z" fill="#fff" opacity="0.53"/><path d="M228.35,57.54A567.21,567.21,0,0,1,126.53,45.89c-9,35.11-14.48,74.52-15.55,115.93H228.35Z" fill="#fff" opacity="0.53"/><path d="M141.35,0Q138,8.55,135,17.64a537.59,537.59,0,0,0,93.4,10.46V0Z" fill="#fff" opacity="0.53"/><path d="M97.67,313.88c-9.43-37.07-15.08-78.47-16.13-122.62H0V314a277.51,277.51,0,0,0,19.92,30.33C42.67,332,68.88,321.76,97.67,313.88Z" fill="#fff" opacity="0.53"/><path d="M228.35,454.22V325a542.21,542.21,0,0,0-93.48,10.23C156.35,399.53,190.17,444.83,228.35,454.22Z" fill="#fff" opacity="0.53"/><path d="M228.35,191.26H111c1.07,41.32,6.5,80.65,15.52,115.7a569.89,569.89,0,0,1,101.85-11.42Z" fill="#fff" opacity="0.53"/><path d="M160.91,443.81c-22.5-24.86-41.37-59.72-55.1-101.73-24.48,6.67-47,15.11-66.64,25.24A279.7,279.7,0,0,0,160.91,443.81Z" fill="#fff" opacity="0.53"/><path d="M500,191.26H404.58c-1,44.24-6.71,85.72-16.18,122.85,28.52,7.8,54.8,17.9,78,30A279.09,279.09,0,0,0,500,286Z" fill="#fff" opacity="0.53"/><path d="M257.78,161.82H375.15c-1.08-41.32-6.51-80.65-15.53-115.7A569.67,569.67,0,0,1,257.78,57.54Z" fill="#fff" opacity="0.53"/><path d="M257.78,0V28.1a542.32,542.32,0,0,0,93.48-10.23Q348.18,8.66,344.78,0Z" fill="#fff" opacity="0.53"/><path d="M257.78,454.22c38.15-9.39,71.9-54.58,93.39-118.78A537.48,537.48,0,0,0,257.78,325Z" fill="#fff" opacity="0.53"/><path d="M257.78,295.54a566.88,566.88,0,0,1,101.79,11.65c9.05-35.11,14.5-74.52,15.58-115.93H257.78Z" fill="#fff" opacity="0.53"/><path d="M325.19,443.81A279.93,279.93,0,0,0,447,367.23a367.29,367.29,0,0,0-66.78-24.89C366.5,384.24,347.65,419,325.19,443.81Z" fill="#fff" opacity="0.53"/><path d="M500,67.09A278.93,278.93,0,0,0,466.21,8.76c-22.75,12.34-49,22.56-77.76,30.44,9.44,37.07,15.09,78.47,16.13,122.62H500Z" fill="#fff" opacity="0.53"/><path d="M376.55,0q1.93,5.42,3.77,11c11.92-3.25,23.36-6.92,34.24-11Z" fill="#fff" opacity="0.53"/><polygon points="430.94 289.54 377.84 231.3 169.05 385.13 97.43 320.75 1.31 407.15 1.31 499.48 138.39 499.48 268.09 499.48 500 499.48 500 455.68 500 365.28 500 203.36 430.94 289.54" fill="#8dc63f"/><path d="M133.12,262.35a4,4,0,0,1-5.3,2.21l-7.52-3.09a4.06,4.06,0,0,1-2.2-5.3h0a4,4,0,0,1,5.3-2.21l7.51,3.09a4.06,4.06,0,0,1,2.21,5.3Z" fill="#6a1b9a"/><rect x="111.6" y="264.59" width="20.31" height="8.12" transform="translate(-173.03 278.93) rotate(-67.62)" fill="#6a1b9a"/><path d="M80.55,390a4.06,4.06,0,0,0-2.21-5.3l-7.51-3.1a4.08,4.08,0,0,0-5.31,2.21h0a4.08,4.08,0,0,0,2.21,5.31l7.52,3.09a4.06,4.06,0,0,0,5.3-2.21Z" fill="#6a1b9a"/><rect x="66.75" y="373.49" width="20.31" height="8.12" transform="translate(-301.52 305.04) rotate(-67.64)" fill="#6a1b9a"/><path d="M38.58,289.3a4.08,4.08,0,0,1,2.21,5.31l-3.1,7.51a4.06,4.06,0,0,1-5.3,2.21h0A4.08,4.08,0,0,1,30.18,299l3.09-7.51a4.08,4.08,0,0,1,5.31-2.21Z" fill="#6a1b9a"/><rect x="40.82" y="290.52" width="8.12" height="20.31" transform="translate(-250.24 227.68) rotate(-67.62)" fill="#6a1b9a"/><path d="M166.25,341.88a4.06,4.06,0,0,0-5.3,2.21l-3.09,7.51a4,4,0,0,0,2.21,5.3h0a4.05,4.05,0,0,0,5.3-2.21l3.1-7.51a4.06,4.06,0,0,0-2.22-5.3Z" fill="#6a1b9a"/><rect x="149.72" y="335.37" width="8.12" height="20.31" transform="translate(-224.28 356.07) rotate(-67.6)" fill="#6a1b9a"/><path d="M32.47,342.15a4.07,4.07,0,0,1,5.32,2.19l3.12,7.5a4.06,4.06,0,0,1-2.19,5.31h0A4.06,4.06,0,0,1,33.41,355l-3.13-7.5a4.07,4.07,0,0,1,2.19-5.32Z" fill="#6a1b9a"/><rect x="34.82" y="341.69" width="20.31" height="8.12" transform="translate(-129.45 43.85) rotate(-22.61)" fill="#6a1b9a"/><path d="M159.93,289.05a4.06,4.06,0,0,0-2.19,5.31l3.13,7.5a4.05,4.05,0,0,0,5.31,2.18h0a4.06,4.06,0,0,0,2.19-5.31l-3.13-7.5a4.06,4.06,0,0,0-5.31-2.18Z" fill="#6a1b9a"/><rect x="143.52" y="296.38" width="20.31" height="8.13" transform="translate(-103.85 82.35) rotate(-22.65)" fill="#6a1b9a"/><path d="M80.27,256.25a4.06,4.06,0,0,1-2.18,5.31l-7.5,3.13a4.06,4.06,0,0,1-5.31-2.19h0a4.07,4.07,0,0,1,2.18-5.32l7.5-3.12a4.05,4.05,0,0,1,5.31,2.19Z" fill="#6a1b9a"/><rect x="72.62" y="258.59" width="8.12" height="20.31" transform="translate(-97.51 50.2) rotate(-22.63)" fill="#6a1b9a"/><path d="M133.38,383.7a4.07,4.07,0,0,0-5.31-2.18l-7.5,3.12a4.07,4.07,0,0,0-2.19,5.32h0a4.06,4.06,0,0,0,5.31,2.18l7.5-3.13a4.06,4.06,0,0,0,2.19-5.31Z" fill="#6a1b9a"/><rect x="117.91" y="367.3" width="8.13" height="20.31" transform="translate(-136.02 76.14) rotate(-22.66)" fill="#6a1b9a"/><path d="M107.45,245.94a4.06,4.06,0,0,1-4.06,4.06H95.26a4.06,4.06,0,0,1-4.06-4.06h0a4.06,4.06,0,0,1,4.06-4.06h8.13a4.06,4.06,0,0,1,4.06,4.06Z" fill="#9c27b0"/><rect x="95.26" y="245.94" width="8.12" height="20.31" fill="#9c27b0"/><path d="M107.45,400.26a4.06,4.06,0,0,0-4.06-4.06H95.26a4.06,4.06,0,0,0-4.06,4.06h0a4.06,4.06,0,0,0,4.06,4.06h8.13a4.06,4.06,0,0,0,4.06-4.06Z" fill="#9c27b0"/><rect x="95.26" y="379.96" width="8.12" height="20.31" fill="#9c27b0"/><path d="M22.16,315A4.06,4.06,0,0,1,26.22,319v8.12a4.06,4.06,0,0,1-4.06,4.06h0a4.06,4.06,0,0,1-4.06-4.06V319A4.06,4.06,0,0,1,22.16,315Z" fill="#9c27b0"/><rect x="22.16" y="319.04" width="20.31" height="8.12" fill="#9c27b0"/><path d="M176.49,315a4.06,4.06,0,0,0-4.06,4.06v8.12a4.06,4.06,0,0,0,4.06,4.06h0a4.06,4.06,0,0,0,4.06-4.06V319a4.06,4.06,0,0,0-4.06-4.06Z" fill="#9c27b0"/><rect x="156.18" y="319.04" width="20.31" height="8.12" fill="#9c27b0"/><path d="M39,371.92a4.06,4.06,0,0,1,5.74,0l5.75,5.74a4.08,4.08,0,0,1,0,5.75h0a4.07,4.07,0,0,1-5.75,0L39,377.66a4.06,4.06,0,0,1,0-5.74Z" fill="#9c27b0"/><rect x="41.79" y="366.42" width="20.3" height="8.12" transform="translate(-246.76 145.24) rotate(-45)" fill="#9c27b0"/><path d="M148.14,262.79a4.08,4.08,0,0,0,0,5.75l5.75,5.74a4,4,0,0,0,5.74,0h0a4,4,0,0,0,0-5.74l-5.74-5.75a4.08,4.08,0,0,0-5.75,0Z" fill="#9c27b0"/><rect x="136.55" y="271.65" width="20.31" height="8.12" transform="translate(-152.02 184.59) rotate(-45.02)" fill="#9c27b0"/><path d="M148.14,383.41a4.08,4.08,0,0,1,0-5.75l5.75-5.74a4.06,4.06,0,0,1,5.74,0h0a4,4,0,0,1,0,5.74l-5.74,5.75a4.08,4.08,0,0,1-5.75,0Z" fill="#9c27b0"/><rect x="142.65" y="360.33" width="8.12" height="20.3" transform="translate(-219 212.25) rotate(-45)" fill="#9c27b0"/><path d="M39,274.28a4,4,0,0,0,5.74,0l5.74-5.74a4.06,4.06,0,0,0,0-5.75h0a4.06,4.06,0,0,0-5.74,0L39,268.54a4.06,4.06,0,0,0,0,5.74Z" fill="#9c27b0"/><rect x="47.88" y="265.56" width="8.12" height="20.31" transform="translate(-179.81 117.56) rotate(-45.02)" fill="#9c27b0"/><circle cx="99.32" cy="323.1" r="60.92" fill="#ff4e00"/><path d="M99.32,270.31A52.8,52.8,0,1,1,46.53,323.1a52.85,52.85,0,0,1,52.79-52.79m0-8.13a60.92,60.92,0,1,0,60.92,60.92,60.92,60.92,0,0,0-60.92-60.92Z" fill="#9e3939"/><path d="M86.9,365.84a4.18,4.18,0,0,1-1.25-.2l-.84-.28a4.06,4.06,0,0,1,2.62-7.69l.71.24a4.06,4.06,0,0,1-1.24,7.93Z" fill="#7d1416"/><path d="M119,362.69a4.06,4.06,0,0,1-2-7.61l.66-.37a4.06,4.06,0,1,1,4,7l-.74.43A4.07,4.07,0,0,1,119,362.69Z" fill="#7d1416"/><path d="M101.52,367.4a4.06,4.06,0,0,1,.91-7.81l.74-.1a4.06,4.06,0,0,1,1.24,8l-.85.13A4,4,0,0,1,101.52,367.4Z" fill="#7d1416"/><path d="M72.25,357.43a4.1,4.1,0,0,1-2.7-1l-.68-.62a4.06,4.06,0,0,1,5.57-5.92l.52.47a4.06,4.06,0,0,1-2.71,7.09Z" fill="#7d1416"/><path d="M131.76,351.61a4.07,4.07,0,0,1-3.24-6.52l.44-.58a4.06,4.06,0,1,1,6.56,4.77L135,350A4,4,0,0,1,131.76,351.61Z" fill="#7d1416"/><path d="M62.28,343.83a4.07,4.07,0,0,1-3.71-2.4l-.35-.81a4.06,4.06,0,1,1,7.47-3.19l.28.66a4,4,0,0,1-2,5.37A3.93,3.93,0,0,1,62.28,343.83Z" fill="#7d1416"/><path d="M138.91,336.31a4.06,4.06,0,0,1-4-5l.16-.72a4.06,4.06,0,0,1,8,1.67l-.19.86A4.06,4.06,0,0,1,138.91,336.31Z" fill="#7d1416"/><path d="M58.71,327.25a4,4,0,0,1-4.06-4v-1.06a4.06,4.06,0,1,1,8.12.18v.71A4.14,4.14,0,0,1,58.71,327.25Z" fill="#7d1416"/><path d="M139.2,319.44a4.05,4.05,0,0,1-4-3.29l-.15-.73a4.06,4.06,0,1,1,7.94-1.68l.18.86a4.06,4.06,0,0,1-3.21,4.76A4.21,4.21,0,0,1,139.2,319.44Z" fill="#7d1416"/><path d="M62.21,310.65a4.06,4.06,0,0,1-3.71-5.72l.36-.78a4.06,4.06,0,0,1,7.37,3.41l-.32.69A4,4,0,0,1,62.21,310.65Z" fill="#7d1416"/><path d="M132.62,303.9a4.08,4.08,0,0,1-3.33-1.73l-.43-.6a4.06,4.06,0,0,1,6.57-4.78l.51.71a4.07,4.07,0,0,1-3.32,6.4Z" fill="#7d1416"/><path d="M72.14,297a4,4,0,0,1-3-1.35,4.07,4.07,0,0,1,.3-5.74l.67-.59a4.06,4.06,0,0,1,5.31,6.15l-.54.48A4.06,4.06,0,0,1,72.14,297Z" fill="#7d1416"/><path d="M120.28,292.37a4,4,0,0,1-2.12-.6l-.6-.35a4.06,4.06,0,1,1,4.06-7l.79.46a4.06,4.06,0,0,1-2.13,7.53Z" fill="#7d1416"/><path d="M86.74,288.54a4.06,4.06,0,0,1-1.26-7.92l.85-.27a4.06,4.06,0,1,1,2.37,7.77l-.7.22A4,4,0,0,1,86.74,288.54Z" fill="#7d1416"/><path d="M104.34,286.86a3.12,3.12,0,0,1-.52,0l-.71-.08a4.06,4.06,0,0,1,.83-8.08l.9.11a4.06,4.06,0,0,1-.5,8.09Z" fill="#7d1416"/><path d="M95.31,351.2a3.68,3.68,0,0,1-.66-.06c-.32-.05-.65-.11-1-.18A4.06,4.06,0,1,1,95.35,343l.62.11a4.06,4.06,0,0,1-.66,8.07ZM111,348.57a4.06,4.06,0,0,1-2-7.62l.6-.34a4.06,4.06,0,1,1,4.11,7l-.8.46A4,4,0,0,1,111,348.57ZM80.82,343a4,4,0,0,1-3.1-1.43l-.59-.71a4.06,4.06,0,0,1,6.34-5.08l.45.54a4.05,4.05,0,0,1-3.1,6.68Zm41.17-6.9a3.91,3.91,0,0,1-1.49-.29,4,4,0,0,1-2.28-5.27l.24-.63a4.06,4.06,0,0,1,7.64,2.74l-.33.89A4.07,4.07,0,0,1,122,336.11ZM75,327.3a3.94,3.94,0,0,1-4-3.83v-1.33a4.06,4.06,0,1,1,8.12.3v.66a4.18,4.18,0,0,1-4,4.2Zm47.5-7.83a4.06,4.06,0,0,1-3.86-2.81l-.21-.58a4.06,4.06,0,0,1,7.6-2.87c.12.31.23.63.34,1a4.06,4.06,0,0,1-2.62,5.12A4.12,4.12,0,0,1,122.45,319.47Zm-41.81-8a4.06,4.06,0,0,1-3.12-6.67l.63-.72a4.06,4.06,0,1,1,6,5.44l-.43.5A4.07,4.07,0,0,1,80.64,311.52Zm31.48-5.09a4,4,0,0,1-2.12-.6l-.6-.36a4.06,4.06,0,1,1,4.06-7l.79.47a4.07,4.07,0,0,1-2.13,7.53ZM95,303.17a4.06,4.06,0,0,1-.72-8.05l1-.16a4.06,4.06,0,0,1,1.12,8l-.64.1A3.58,3.58,0,0,1,95,303.17Z" fill="#7d1416"/><path d="M414.12,172.67a4,4,0,0,1-5.3,2.21l-7.52-3.09a4.07,4.07,0,0,1-2.21-5.3h0a4.07,4.07,0,0,1,5.31-2.22l7.51,3.1a4.06,4.06,0,0,1,2.21,5.3Z" fill="#6a1b9a"/><rect x="392.6" y="174.91" width="20.31" height="8.12" transform="translate(83.9 483.23) rotate(-67.62)" fill="#6a1b9a"/><path d="M361.55,300.35a4.06,4.06,0,0,0-2.21-5.3l-7.51-3.1a4.07,4.07,0,0,0-5.31,2.21h0a4.06,4.06,0,0,0,2.21,5.3l7.51,3.1a4.08,4.08,0,0,0,5.31-2.21Z" fill="#6a1b9a"/><rect x="347.74" y="283.8" width="20.31" height="8.12" transform="translate(-44.47 509.35) rotate(-67.64)" fill="#6a1b9a"/><path d="M319.58,199.62a4.07,4.07,0,0,1,2.21,5.3l-3.1,7.51a4.06,4.06,0,0,1-5.3,2.22h0a4.07,4.07,0,0,1-2.21-5.31l3.09-7.51a4.07,4.07,0,0,1,5.31-2.21Z" fill="#6a1b9a"/><rect x="321.81" y="200.84" width="8.12" height="20.31" transform="translate(6.69 431.98) rotate(-67.62)" fill="#6a1b9a"/><path d="M447.25,252.19a4.06,4.06,0,0,0-5.3,2.22l-3.09,7.5a4.06,4.06,0,0,0,2.21,5.31h0a4.07,4.07,0,0,0,5.3-2.21l3.09-7.51a4.06,4.06,0,0,0-2.21-5.31Z" fill="#6a1b9a"/><rect x="430.72" y="245.69" width="8.12" height="20.31" transform="translate(32.58 560.36) rotate(-67.6)" fill="#6a1b9a"/><path d="M313.47,252.47a4.06,4.06,0,0,1,5.31,2.18l3.13,7.5a4.07,4.07,0,0,1-2.19,5.32h0a4.07,4.07,0,0,1-5.31-2.19l-3.13-7.5a4.06,4.06,0,0,1,2.19-5.31Z" fill="#6a1b9a"/><rect x="315.82" y="252" width="20.31" height="8.12" transform="translate(-73.38 144.97) rotate(-22.61)" fill="#6a1b9a"/><path d="M440.93,199.36a4.07,4.07,0,0,0-2.19,5.31l3.13,7.5a4.06,4.06,0,0,0,5.31,2.19h0a4.06,4.06,0,0,0,2.19-5.31l-3.13-7.5a4.06,4.06,0,0,0-5.31-2.19Z" fill="#6a1b9a"/><rect x="424.52" y="206.7" width="20.31" height="8.13" transform="translate(-47.64 183.64) rotate(-22.65)" fill="#6a1b9a"/><path d="M361.27,166.56a4.06,4.06,0,0,1-2.18,5.31l-7.5,3.13a4.08,4.08,0,0,1-5.32-2.19h0a4.06,4.06,0,0,1,2.19-5.31l7.5-3.12a4,4,0,0,1,5.31,2.18Z" fill="#6a1b9a"/><rect x="353.62" y="168.9" width="8.12" height="20.31" transform="translate(-41.36 151.42) rotate(-22.63)" fill="#6a1b9a"/><path d="M414.38,294a4.08,4.08,0,0,0-5.31-2.19l-7.5,3.13a4.07,4.07,0,0,0-2.19,5.32h0a4.07,4.07,0,0,0,5.31,2.18l7.5-3.13a4.06,4.06,0,0,0,2.19-5.31Z" fill="#6a1b9a"/><rect x="398.91" y="277.62" width="8.13" height="20.31" transform="translate(-79.77 177.48) rotate(-22.66)" fill="#6a1b9a"/><path d="M388.45,156.26a4.07,4.07,0,0,1-4.07,4.06h-8.12a4.06,4.06,0,0,1-4.06-4.06h0a4.07,4.07,0,0,1,4.06-4.07h8.12a4.07,4.07,0,0,1,4.07,4.07Z" fill="#9c27b0"/><rect x="376.26" y="156.26" width="8.12" height="20.31" fill="#9c27b0"/><path d="M388.45,310.58a4.07,4.07,0,0,0-4.07-4.06h-8.12a4.06,4.06,0,0,0-4.06,4.06h0a4.06,4.06,0,0,0,4.06,4.06h8.12a4.07,4.07,0,0,0,4.07-4.06Z" fill="#9c27b0"/><rect x="376.26" y="290.27" width="8.12" height="20.31" fill="#9c27b0"/><path d="M303.16,225.3a4.06,4.06,0,0,1,4.06,4.06v8.12a4.06,4.06,0,0,1-4.06,4.06h0a4.06,4.06,0,0,1-4.06-4.06v-8.12a4.06,4.06,0,0,1,4.06-4.06Z" fill="#9c27b0"/><rect x="303.16" y="229.36" width="20.31" height="8.12" fill="#9c27b0"/><path d="M457.49,225.3a4.06,4.06,0,0,0-4.07,4.06v8.12a4.07,4.07,0,0,0,4.07,4.06h0a4.06,4.06,0,0,0,4.06-4.06v-8.12a4.06,4.06,0,0,0-4.06-4.06Z" fill="#9c27b0"/><rect x="437.18" y="229.36" width="20.31" height="8.12" fill="#9c27b0"/><path d="M320,282.24a4.06,4.06,0,0,1,5.75,0L331.5,288a4,4,0,0,1,0,5.74h0a4,4,0,0,1-5.74,0L320,288a4.07,4.07,0,0,1,0-5.74Z" fill="#9c27b0"/><rect x="322.79" y="276.74" width="20.3" height="8.12" transform="translate(-101.04 317.67) rotate(-45)" fill="#9c27b0"/><path d="M429.14,173.11a4.06,4.06,0,0,0,0,5.74l5.75,5.74a4,4,0,0,0,5.74,0h0a4,4,0,0,0,0-5.74l-5.74-5.74a4.08,4.08,0,0,0-5.75,0Z" fill="#9c27b0"/><rect x="417.54" y="181.96" width="20.31" height="8.12" transform="translate(-6.21 357.07) rotate(-45.02)" fill="#9c27b0"/><path d="M429.14,293.73a4.07,4.07,0,0,1,0-5.75l5.75-5.74a4,4,0,0,1,5.74,0h0a4,4,0,0,1,0,5.74l-5.74,5.75a4.08,4.08,0,0,1-5.75,0Z" fill="#9c27b0"/><rect x="423.65" y="270.65" width="8.12" height="20.3" transform="translate(-73.28 384.68) rotate(-45)" fill="#9c27b0"/><path d="M320,184.6a4.07,4.07,0,0,0,5.75,0l5.74-5.75a4,4,0,0,0,0-5.74h0a4.06,4.06,0,0,0-5.74,0L320,178.85a4.08,4.08,0,0,0,0,5.75Z" fill="#9c27b0"/><rect x="328.87" y="175.88" width="8.12" height="20.31" transform="translate(-33.99 290.04) rotate(-45.02)" fill="#9c27b0"/><circle cx="380.32" cy="233.42" r="60.92" fill="#ff4e00"/><path d="M380.32,180.62a52.8,52.8,0,1,1-52.79,52.8,52.86,52.86,0,0,1,52.79-52.8m0-8.12a60.92,60.92,0,1,0,60.92,60.92,60.91,60.91,0,0,0-60.92-60.92Z" fill="#9e3939"/><path d="M367.9,276.15a3.85,3.85,0,0,1-1.25-.2l-.84-.27a4.06,4.06,0,0,1,2.62-7.69l.71.24a4.06,4.06,0,0,1-1.24,7.92Z" fill="#7d1416"/><path d="M400,273a4.06,4.06,0,0,1-2-7.6l.66-.38a4.06,4.06,0,0,1,4.05,7l-.74.42A4,4,0,0,1,400,273Z" fill="#7d1416"/><path d="M382.52,277.72a4.06,4.06,0,0,1,.91-7.81l.74-.1a4.06,4.06,0,1,1,1.23,8l-.85.13A4,4,0,0,1,382.52,277.72Z" fill="#7d1416"/><path d="M353.25,267.75a4.06,4.06,0,0,1-2.7-1l-.68-.62a4.06,4.06,0,0,1,5.57-5.92l.52.48a4.06,4.06,0,0,1-2.71,7.09Z" fill="#7d1416"/><path d="M412.76,261.92a4.05,4.05,0,0,1-3.24-6.51l.43-.59a4.06,4.06,0,0,1,6.57,4.78l-.53.71A4,4,0,0,1,412.76,261.92Z" fill="#7d1416"/><path d="M343.28,254.14a4.07,4.07,0,0,1-3.71-2.39l-.35-.81a4.06,4.06,0,1,1,7.46-3.19l.29.66a4.06,4.06,0,0,1-3.69,5.73Z" fill="#7d1416"/><path d="M419.9,246.63a4,4,0,0,1-.9-.1,4.06,4.06,0,0,1-3.06-4.86l.16-.72a4.06,4.06,0,0,1,7.95,1.66l-.19.86A4.07,4.07,0,0,1,419.9,246.63Z" fill="#7d1416"/><path d="M339.71,237.56a4,4,0,0,1-4.06-4v-1.07a4.06,4.06,0,0,1,8.12.18v.72A4.13,4.13,0,0,1,339.71,237.56Z" fill="#7d1416"/><path d="M420.2,229.75a4,4,0,0,1-4-3.29l-.15-.73a4.06,4.06,0,1,1,7.94-1.67l.18.85a4.06,4.06,0,0,1-3.21,4.76A3.5,3.5,0,0,1,420.2,229.75Z" fill="#7d1416"/><path d="M343.2,221a3.9,3.9,0,0,1-1.65-.36,4.06,4.06,0,0,1-2.05-5.36l.36-.79a4.06,4.06,0,0,1,7.37,3.42l-.32.69A4,4,0,0,1,343.2,221Z" fill="#7d1416"/><path d="M413.62,214.21a4.07,4.07,0,0,1-3.33-1.72l-.43-.6a4.06,4.06,0,1,1,6.57-4.78l.51.71a4.07,4.07,0,0,1-1,5.66A4.11,4.11,0,0,1,413.62,214.21Z" fill="#7d1416"/><path d="M353.14,207.31a4.06,4.06,0,0,1-2.72-7.08l.67-.59a4.06,4.06,0,0,1,5.31,6.15l-.55.47A4,4,0,0,1,353.14,207.31Z" fill="#7d1416"/><path d="M401.28,202.69a4,4,0,0,1-2.12-.6l-.6-.36a4.06,4.06,0,0,1,4.05-7l.8.47a4.06,4.06,0,0,1-2.13,7.53Z" fill="#7d1416"/><path d="M367.74,198.86a4.07,4.07,0,0,1-1.26-7.93l.85-.26a4.06,4.06,0,1,1,2.37,7.77l-.7.22A4.25,4.25,0,0,1,367.74,198.86Z" fill="#7d1416"/><path d="M385.33,197.17a4.36,4.36,0,0,1-.51,0l-.71-.08a4.06,4.06,0,0,1,.83-8.08l.9.1a4.06,4.06,0,0,1-.51,8.09Z" fill="#7d1416"/><path d="M376.31,261.52a3.68,3.68,0,0,1-.66-.06c-.33,0-.65-.11-1-.18a4.06,4.06,0,0,1,1.68-7.95l.62.12a4.06,4.06,0,0,1-.66,8.07ZM392,258.89a4.06,4.06,0,0,1-2-7.62l.6-.34a4.06,4.06,0,1,1,4.11,7l-.8.45A4,4,0,0,1,392,258.89Zm-30.15-5.56a4,4,0,0,1-3.1-1.44l-.59-.7a4.07,4.07,0,0,1,6.34-5.09l.45.55a4.06,4.06,0,0,1-3.1,6.68Zm41.17-6.9a4,4,0,0,1-1.5-.29,4.06,4.06,0,0,1-2.27-5.27l.24-.63A4.06,4.06,0,1,1,407.1,243l-.33.88A4.09,4.09,0,0,1,403,246.43Zm-47-8.81a4,4,0,0,1-4.06-3.83v-.37l0-1a4.06,4.06,0,0,1,8.12.3v.66a4.19,4.19,0,0,1-4,4.2Zm47.5-7.83a4.07,4.07,0,0,1-3.86-2.81l-.21-.58a4.06,4.06,0,0,1,7.6-2.87c.12.31.23.63.33.95a4.06,4.06,0,0,1-2.61,5.11A3.89,3.89,0,0,1,403.45,229.79Zm-41.82-7.95a4,4,0,0,1-2.6-1,4.06,4.06,0,0,1-.51-5.72l.63-.72a4.06,4.06,0,1,1,6,5.44l-.43.5A4.1,4.1,0,0,1,361.63,221.84Zm31.49-5.1a4.07,4.07,0,0,1-2.12-.59l-.6-.37a4.06,4.06,0,1,1,4.06-7l.78.46a4.06,4.06,0,0,1-2.12,7.53ZM376,213.49a4.06,4.06,0,0,1-.72-8.06l1-.15a4.06,4.06,0,1,1,1.12,8l-.64.1A3.58,3.58,0,0,1,376,213.49Z" fill="#7d1416"/><path d="M308.15,306.94a4.07,4.07,0,0,1-5.3,2.21l-7.52-3.1a4.07,4.07,0,0,1-2.21-5.3h0a4.07,4.07,0,0,1,5.31-2.21l7.51,3.09a4.07,4.07,0,0,1,2.21,5.31Z" fill="#6a1b9a"/><rect x="286.63" y="309.18" width="20.31" height="8.12" transform="translate(-105.87 468.38) rotate(-67.62)" fill="#6a1b9a"/><path d="M255.58,434.61a4.07,4.07,0,0,0-2.21-5.3l-7.51-3.09a4.06,4.06,0,0,0-5.31,2.21h0a4.07,4.07,0,0,0,2.21,5.3l7.51,3.09a4.06,4.06,0,0,0,5.31-2.21Z" fill="#6a1b9a"/><rect x="241.77" y="418.07" width="20.31" height="8.12" transform="translate(-234.3 494.53) rotate(-67.64)" fill="#6a1b9a"/><path d="M213.61,333.89a4.06,4.06,0,0,1,2.21,5.3l-3.1,7.51a4.06,4.06,0,0,1-5.3,2.21h0a4.07,4.07,0,0,1-2.21-5.31l3.09-7.5a4.06,4.06,0,0,1,5.31-2.21Z" fill="#6a1b9a"/><rect x="215.84" y="335.1" width="8.12" height="20.31" transform="translate(-183.08 417.13) rotate(-67.62)" fill="#6a1b9a"/><path d="M341.28,386.46a4.06,4.06,0,0,0-5.3,2.21l-3.09,7.51a4,4,0,0,0,2.21,5.3h0a4.05,4.05,0,0,0,5.3-2.21l3.1-7.51a4.06,4.06,0,0,0-2.22-5.3Z" fill="#6a1b9a"/><rect x="324.75" y="379.96" width="8.12" height="20.31" transform="translate(-157.15 545.49) rotate(-67.6)" fill="#6a1b9a"/><path d="M207.5,386.73a4.06,4.06,0,0,1,5.31,2.19l3.13,7.5a4.08,4.08,0,0,1-2.19,5.32h0a4.08,4.08,0,0,1-5.31-2.19l-3.13-7.5a4.07,4.07,0,0,1,2.19-5.32Z" fill="#6a1b9a"/><rect x="209.85" y="386.27" width="20.31" height="8.12" transform="translate(-133.14 114.55) rotate(-22.61)" fill="#6a1b9a"/><path d="M335,333.63a4.06,4.06,0,0,0-2.19,5.31l3.13,7.5a4.05,4.05,0,0,0,5.31,2.18h0a4,4,0,0,0,2.19-5.3l-3.13-7.51a4.06,4.06,0,0,0-5.31-2.18Z" fill="#6a1b9a"/><rect x="318.55" y="340.97" width="20.31" height="8.13" transform="translate(-107.52 153.19) rotate(-22.65)" fill="#6a1b9a"/><path d="M255.3,300.83a4.06,4.06,0,0,1-2.18,5.31l-7.5,3.13a4.08,4.08,0,0,1-5.32-2.19h0a4.06,4.06,0,0,1,2.19-5.31l7.5-3.13a4.06,4.06,0,0,1,5.31,2.19Z" fill="#6a1b9a"/><rect x="247.65" y="303.17" width="8.12" height="20.31" transform="translate(-101.18 120.98) rotate(-22.63)" fill="#6a1b9a"/><path d="M308.41,428.28a4.07,4.07,0,0,0-5.31-2.18l-7.5,3.12a4.08,4.08,0,0,0-2.19,5.33h0a4.05,4.05,0,0,0,5.31,2.17l7.5-3.12a4.08,4.08,0,0,0,2.19-5.32Z" fill="#6a1b9a"/><rect x="292.94" y="411.88" width="8.13" height="20.31" transform="translate(-139.68 147.02) rotate(-22.66)" fill="#6a1b9a"/><path d="M282.48,290.52a4.07,4.07,0,0,1-4.07,4.06h-8.12a4.06,4.06,0,0,1-4.06-4.06h0a4.06,4.06,0,0,1,4.06-4.06h8.12a4.07,4.07,0,0,1,4.07,4.06Z" fill="#9c27b0"/><rect x="270.29" y="290.52" width="8.12" height="20.31" fill="#9c27b0"/><path d="M282.48,444.85a4.07,4.07,0,0,0-4.07-4.07h-8.12a4.07,4.07,0,0,0-4.06,4.07h0a4.06,4.06,0,0,0,4.06,4.06h8.12a4.07,4.07,0,0,0,4.07-4.06Z" fill="#9c27b0"/><rect x="270.29" y="424.54" width="8.12" height="20.31" fill="#9c27b0"/><path d="M197.19,359.56a4.06,4.06,0,0,1,4.06,4.06v8.12a4.07,4.07,0,0,1-4.06,4.07h0a4.07,4.07,0,0,1-4.06-4.07v-8.12a4.06,4.06,0,0,1,4.06-4.06Z" fill="#9c27b0"/><rect x="197.19" y="363.62" width="20.31" height="8.12" fill="#9c27b0"/><path d="M351.52,359.56a4.07,4.07,0,0,0-4.07,4.06v8.12a4.07,4.07,0,0,0,4.07,4.07h0a4.07,4.07,0,0,0,4.06-4.07v-8.12a4.06,4.06,0,0,0-4.06-4.06Z" fill="#9c27b0"/><rect x="331.21" y="363.62" width="20.31" height="8.12" fill="#9c27b0"/><path d="M214.05,416.5a4.06,4.06,0,0,1,5.74,0l5.74,5.74a4.06,4.06,0,0,1,0,5.75h0a4,4,0,0,1-5.74,0l-5.74-5.75a4.06,4.06,0,0,1,0-5.74Z" fill="#9c27b0"/><rect x="216.82" y="411.01" width="20.3" height="8.12" transform="translate(-227.02 282.06) rotate(-45)" fill="#9c27b0"/><path d="M323.17,307.37a4.08,4.08,0,0,0,0,5.75l5.75,5.74a4,4,0,0,0,5.74,0h0a4,4,0,0,0,0-5.74l-5.74-5.75a4.08,4.08,0,0,0-5.75,0Z" fill="#9c27b0"/><rect x="311.57" y="316.23" width="20.31" height="8.12" transform="translate(-132.25 321.47) rotate(-45.02)" fill="#9c27b0"/><path d="M323.17,428a4.08,4.08,0,0,1,0-5.75l5.75-5.74a4.06,4.06,0,0,1,5.74,0h0a4,4,0,0,1,0,5.74L328.92,428a4.07,4.07,0,0,1-5.75,0Z" fill="#9c27b0"/><rect x="317.68" y="404.92" width="8.12" height="20.3" transform="translate(-199.26 349.07) rotate(-45)" fill="#9c27b0"/><path d="M214.05,318.86a4,4,0,0,0,5.74,0l5.74-5.74a4.06,4.06,0,0,0,0-5.75h0a4.07,4.07,0,0,0-5.74,0l-5.74,5.75a4.06,4.06,0,0,0,0,5.74Z" fill="#9c27b0"/><rect x="222.9" y="310.14" width="8.12" height="20.31" transform="translate(-160.03 254.44) rotate(-45.02)" fill="#9c27b0"/><circle cx="274.35" cy="367.68" r="60.92" fill="#ff4e00"/><path d="M274.35,314.89a52.8,52.8,0,1,1-52.79,52.79,52.86,52.86,0,0,1,52.79-52.79m0-8.12a60.92,60.92,0,1,0,60.92,60.91,60.91,60.91,0,0,0-60.92-60.91Z" fill="#9e3939"/><path d="M261.93,410.42a4.13,4.13,0,0,1-1.25-.2l-.84-.28a4.06,4.06,0,0,1,2.62-7.68l.71.24a4.06,4.06,0,0,1-1.24,7.92Z" fill="#7d1416"/><path d="M294.06,407.27a4.06,4.06,0,0,1-2-7.61l.66-.37a4.06,4.06,0,1,1,4,7l-.74.43A4.07,4.07,0,0,1,294.06,407.27Z" fill="#7d1416"/><path d="M276.55,412a4.06,4.06,0,0,1,.91-7.81l.74-.11a4.06,4.06,0,0,1,1.23,8l-.84.13A4.21,4.21,0,0,1,276.55,412Z" fill="#7d1416"/><path d="M247.28,402a4.11,4.11,0,0,1-2.7-1l-.68-.62a4.06,4.06,0,0,1,5.57-5.92l.52.47a4.07,4.07,0,0,1-2.71,7.1Z" fill="#7d1416"/><path d="M306.79,396.19a4.07,4.07,0,0,1-3.24-6.52l.43-.58a4.06,4.06,0,1,1,6.57,4.77l-.53.72A4,4,0,0,1,306.79,396.19Z" fill="#7d1416"/><path d="M237.31,388.41a4.07,4.07,0,0,1-3.71-2.4l-.35-.81a4.06,4.06,0,1,1,7.46-3.19l.29.66a4,4,0,0,1-2,5.37A3.93,3.93,0,0,1,237.31,388.41Z" fill="#7d1416"/><path d="M313.93,380.89a4.66,4.66,0,0,1-.9-.09,4.06,4.06,0,0,1-3.06-4.86l.16-.72a4.06,4.06,0,1,1,7.95,1.66l-.19.86A4.07,4.07,0,0,1,313.93,380.89Z" fill="#7d1416"/><path d="M233.74,371.83a4,4,0,0,1-4.06-4v-1.06a4.06,4.06,0,1,1,8.12.18v.71A4.14,4.14,0,0,1,233.74,371.83Z" fill="#7d1416"/><path d="M314.23,364a4.05,4.05,0,0,1-4-3.29l-.15-.73a4.06,4.06,0,1,1,7.94-1.68l.18.86a4.07,4.07,0,0,1-3.21,4.76A3.5,3.5,0,0,1,314.23,364Z" fill="#7d1416"/><path d="M237.23,355.24a4.08,4.08,0,0,1-3.7-5.73l.36-.78a4.06,4.06,0,0,1,7.37,3.41l-.32.7A4.06,4.06,0,0,1,237.23,355.24Z" fill="#7d1416"/><path d="M307.65,348.48a4,4,0,0,1-3.33-1.73l-.43-.6a4.06,4.06,0,0,1,6.57-4.78l.51.72a4.06,4.06,0,0,1-3.32,6.39Z" fill="#7d1416"/><path d="M247.17,341.58a4.07,4.07,0,0,1-2.72-7.09l.67-.59a4.06,4.06,0,1,1,5.31,6.15l-.55.48A4,4,0,0,1,247.17,341.58Z" fill="#7d1416"/><path d="M295.31,337a4,4,0,0,1-2.12-.6l-.6-.35a4.06,4.06,0,1,1,4.06-7l.79.47a4.06,4.06,0,0,1-2.13,7.52Z" fill="#7d1416"/><path d="M261.77,333.12a4.06,4.06,0,0,1-1.26-7.92l.85-.27a4.06,4.06,0,1,1,2.37,7.77l-.7.22A4,4,0,0,1,261.77,333.12Z" fill="#7d1416"/><path d="M279.37,331.44a3,3,0,0,1-.52,0l-.71-.08a4.06,4.06,0,0,1,.83-8.07l.9.1a4.06,4.06,0,0,1-.5,8.09Z" fill="#7d1416"/><path d="M270.34,395.78a3.67,3.67,0,0,1-.66,0l-1-.18a4.06,4.06,0,0,1,1.68-7.95l.62.11a4.06,4.06,0,0,1-.66,8.07ZM286,393.15a4.06,4.06,0,0,1-2-7.61l.6-.35a4.06,4.06,0,1,1,4.11,7l-.8.45A4,4,0,0,1,286,393.15Zm-30.15-5.56a4,4,0,0,1-3.1-1.43l-.59-.71a4.06,4.06,0,0,1,6.34-5.08l.45.54a4.05,4.05,0,0,1-3.1,6.68Zm41.17-6.9a4.19,4.19,0,0,1-1.5-.28,4.07,4.07,0,0,1-2.27-5.28l.24-.63a4.06,4.06,0,1,1,7.64,2.74l-.33.89A4.07,4.07,0,0,1,297,380.69Zm-47-8.8a3.94,3.94,0,0,1-4-3.84v-1.33a4.06,4.06,0,0,1,8.12.3v.66a4.18,4.18,0,0,1-4,4.2Zm47.5-7.83a4.06,4.06,0,0,1-3.86-2.82l-.21-.57a4.06,4.06,0,0,1,7.6-2.88c.12.32.23.63.33.95a4.07,4.07,0,0,1-2.61,5.12A4.18,4.18,0,0,1,297.48,364.06Zm-41.82-8a4,4,0,0,1-2.6-.94,4.06,4.06,0,0,1-.51-5.72l.63-.73a4.06,4.06,0,1,1,6,5.44l-.43.5A4.07,4.07,0,0,1,255.66,356.1ZM287.15,351a4,4,0,0,1-2.12-.6l-.6-.36a4.06,4.06,0,1,1,4.06-7l.78.47a4.07,4.07,0,0,1-2.12,7.53Zm-17.09-3.26a4.06,4.06,0,0,1-.72-8.05l1-.16a4.06,4.06,0,1,1,1.12,8l-.64.11A4.46,4.46,0,0,1,270.06,347.75Z" fill="#7d1416"/><path d="M82.83,106.82a43.33,43.33,0,0,1,2.34,6.26,44.74,44.74,0,0,1,1.36,6.48,52,52,0,0,1-10.18,2.73,69,69,0,0,1-9.74.65,40.91,40.91,0,0,1-16.23-3,32.42,32.42,0,0,1-11.71-8.39,35.64,35.64,0,0,1-7.13-12.8,52,52,0,0,1-2.4-16.11,50.58,50.58,0,0,1,2.51-16.18,37.66,37.66,0,0,1,7.24-12.9,32.8,32.8,0,0,1,11.65-8.5,38.7,38.7,0,0,1,15.74-3,65.39,65.39,0,0,1,9.64.66,41.9,41.9,0,0,1,9.53,2.72,24.4,24.4,0,0,1-1.31,6.37Q83,54.88,81.74,58A49.43,49.43,0,0,0,75,56.18a39.08,39.08,0,0,0-7-.54q-10.45,0-16.06,6.8T46.35,82.65q0,26.57,22.54,26.57a39.93,39.93,0,0,0,7.08-.55A46.66,46.66,0,0,0,82.83,106.82Z" fill="#435b1d"/><path d="M121.6,122.94a35.34,35.34,0,0,1-15.25-3,28.51,28.51,0,0,1-10.56-8.44,36.41,36.41,0,0,1-6.15-12.74,60.36,60.36,0,0,1-2-16.06,61.66,61.66,0,0,1,2-16.18,36.94,36.94,0,0,1,6.15-12.9,28.36,28.36,0,0,1,10.56-8.5,35.34,35.34,0,0,1,15.25-3,35.34,35.34,0,0,1,15.25,3,28.36,28.36,0,0,1,10.56,8.5,36.94,36.94,0,0,1,6.15,12.9,61.66,61.66,0,0,1,2,16.18,60.36,60.36,0,0,1-2,16.06,36.41,36.41,0,0,1-6.15,12.74,28.51,28.51,0,0,1-10.56,8.44A35.34,35.34,0,0,1,121.6,122.94Zm0-13.29q16.88,0,16.88-27,0-13.52-4.08-20.26t-12.69-6.75q-17.1,0-17.1,27T121.6,109.65Z" fill="#435b1d"/><path d="M153.84,43.33c1.23-.14,2.65-.29,4.25-.43s3-.22,4.24-.22a62.36,62.36,0,0,1,8.71.65l17.1,61.75,17.32-61.75c1.45-.22,2.85-.36,4.19-.43s2.7-.11,4.08-.11,2.64,0,4,.11,2.74.21,4.19.43l-25.26,78.3c-1.53.22-3,.38-4.41.49s-2.93.17-4.52.17-2.87-.06-4.25-.17-2.9-.27-4.57-.49Z" fill="#435b1d"/><path d="M225.17,43.33a50.13,50.13,0,0,1,8-.65,52.39,52.39,0,0,1,8.06.65v78.3a50.52,50.52,0,0,1-8,.66,49.7,49.7,0,0,1-8.06-.66Z" fill="#435b1d"/><path d="M251.3,43.33q4.57-.54,9.59-.92c3.33-.26,7-.39,11.11-.39q20.58,0,31.3,10.24T314,83q0,20.58-10.89,30.28t-32.34,9.69c-3.7,0-7.12-.13-10.24-.38s-6.21-.56-9.26-.93Zm16,65.67c.66.07,1.49.15,2.51.22s2.25.11,3.7.11a35.82,35.82,0,0,0,9.31-1.15,16.77,16.77,0,0,0,7.46-4.19,20.94,20.94,0,0,0,5-8.17,39.44,39.44,0,0,0,1.85-13.17,39.66,39.66,0,0,0-1.85-13.07,20.9,20.9,0,0,0-5-8.28,17.85,17.85,0,0,0-7.24-4.3,29.2,29.2,0,0,0-8.66-1.25c-1,0-2.2,0-3.54,0a33.75,33.75,0,0,0-3.54.27Z" fill="#435b1d"/><path d="M348.23,85a34.21,34.21,0,0,1,.65,6.64,34.83,34.83,0,0,1-.65,6.76H320.46a33.55,33.55,0,0,1-.66-6.65,34,34,0,0,1,.66-6.75Z" fill="#435b1d"/><path d="M377,108.46V64.35l-13.07,5.12c-.73-.94-1.4-1.89-2-2.83a30.53,30.53,0,0,1-1.68-2.94,35.85,35.85,0,0,1-2.29-6.1l31.47-13.72h3.16v64.58h15.57a31.32,31.32,0,0,1,.44,3.43c.07,1,.11,2.08.11,3.1s0,2.25-.11,3.27a32,32,0,0,1-.44,3.37H361.29c-.21-1.23-.36-2.36-.43-3.37s-.11-2.11-.11-3.27,0-2,.11-3.1a33.79,33.79,0,0,1,.43-3.43Z" fill="#435b1d"/><path d="M425.87,122.29c-.36-1.16-.67-2.33-.92-3.49a16.38,16.38,0,0,1-.38-3.59,19.38,19.38,0,0,1,1-5.77,31,31,0,0,0,10.72-2.18,25.29,25.29,0,0,0,8.06-5.18,26.72,26.72,0,0,0,5.39-7.35A33.15,33.15,0,0,0,452.66,86a19.62,19.62,0,0,1-2.34,2.78,17,17,0,0,1-3.26,2.5,18,18,0,0,1-4.42,1.85,20.94,20.94,0,0,1-5.77.71,25.25,25.25,0,0,1-8.93-1.58,21.24,21.24,0,0,1-7.46-4.68,22.29,22.29,0,0,1-5.12-7.84,29.83,29.83,0,0,1-1.9-11.16,26.61,26.61,0,0,1,2.34-11.49,25,25,0,0,1,15-13.4A32,32,0,0,1,441,42q13.62,0,20.8,7.95T469,73.82a64,64,0,0,1-2.61,18.57,43.39,43.39,0,0,1-7.95,15.14A39.33,39.33,0,0,1,445,117.93,48,48,0,0,1,425.87,122.29Zm15-40.62a11.71,11.71,0,0,0,8.66-3.22q3.21-3.21,3.21-9.64,0-6.86-3.1-10.5a10.36,10.36,0,0,0-8.33-3.65A11.39,11.39,0,0,0,433,58q-3.37,3.38-3.37,10.24,0,7.19,3.21,10.29A11.21,11.21,0,0,0,440.9,81.67Z" fill="#435b1d"/><path d="M80.85,103.85a44.14,44.14,0,0,1,3.7,12.74,51.18,51.18,0,0,1-10.18,2.72,67.53,67.53,0,0,1-9.75.66,40.72,40.72,0,0,1-16.22-3,32.28,32.28,0,0,1-11.71-8.38,35.73,35.73,0,0,1-7.13-12.8,52,52,0,0,1-2.4-16.12A50.19,50.19,0,0,1,29.67,63.5a37.49,37.49,0,0,1,7.24-12.9,32.68,32.68,0,0,1,11.65-8.5A38.7,38.7,0,0,1,64.3,39.05a66.71,66.71,0,0,1,9.63.65,42.19,42.19,0,0,1,9.53,2.73,24,24,0,0,1-1.3,6.37q-1.09,3.11-2.4,6.26A48,48,0,0,0,73,53.21a39.08,39.08,0,0,0-7-.55q-10.46,0-16.06,6.81t-5.61,20.2q0,26.58,22.54,26.58A40.89,40.89,0,0,0,74,105.7,46.66,46.66,0,0,0,80.85,103.85Z" fill="#8dc63f"/><path d="M119.62,120a35.34,35.34,0,0,1-15.25-3,28.51,28.51,0,0,1-10.56-8.44,36.49,36.49,0,0,1-6.15-12.74,60.39,60.39,0,0,1-2-16.07,61.53,61.53,0,0,1,2-16.17,36.94,36.94,0,0,1,6.15-12.9,28.26,28.26,0,0,1,10.56-8.5,35.34,35.34,0,0,1,15.25-3.05,35.34,35.34,0,0,1,15.25,3.05,28.26,28.26,0,0,1,10.56,8.5,36.94,36.94,0,0,1,6.15,12.9,62,62,0,0,1,2,16.17,60.8,60.8,0,0,1-2,16.07,36.49,36.49,0,0,1-6.15,12.74,28.51,28.51,0,0,1-10.56,8.44A35.34,35.34,0,0,1,119.62,120Zm0-13.29q16.88,0,16.88-27,0-13.5-4.08-20.25t-12.69-6.76q-17.1,0-17.1,27T119.62,106.68Z" fill="#8dc63f"/><path d="M151.86,40.36c1.23-.15,2.65-.29,4.24-.44s3-.22,4.25-.22a61,61,0,0,1,8.71.66l17.1,61.75,17.32-61.75c1.45-.22,2.84-.36,4.19-.44s2.7-.11,4.08-.11,2.63,0,4,.11,2.74.22,4.19.44l-25.26,78.3c-1.53.22-3,.38-4.42.49s-2.92.16-4.52.16c-1.45,0-2.86,0-4.24-.16s-2.91-.27-4.58-.49Z" fill="#8dc63f"/><path d="M223.19,40.36a49,49,0,0,1,7.95-.66,51.2,51.2,0,0,1,8.06.66v78.3a50.47,50.47,0,0,1-7.95.65,49.69,49.69,0,0,1-8.06-.65Z" fill="#8dc63f"/><path d="M249.32,40.36q4.58-.54,9.59-.93c3.33-.25,7-.38,11.1-.38q20.6,0,31.31,10.24T312.05,80q0,20.58-10.89,30.27T268.82,120q-5.56,0-10.24-.38t-9.26-.93Zm16,65.67c.65.07,1.49.14,2.5.22s2.25.1,3.71.1a36.26,36.26,0,0,0,9.31-1.14,16.77,16.77,0,0,0,7.46-4.19,21.26,21.26,0,0,0,5-8.17,39.46,39.46,0,0,0,1.85-13.18,39.75,39.75,0,0,0-1.85-13.07,21.16,21.16,0,0,0-5-8.27,17.85,17.85,0,0,0-7.24-4.3,29.21,29.21,0,0,0-8.66-1.26q-1.53,0-3.54.06a33.75,33.75,0,0,0-3.54.27Z" fill="#8dc63f"/><path d="M346.25,82.07a34.21,34.21,0,0,1,.65,6.64,34.65,34.65,0,0,1-.65,6.75H318.48a33.38,33.38,0,0,1-.66-6.64,34,34,0,0,1,.66-6.75Z" fill="#8dc63f"/><path d="M375,105.48V61.38L361.93,66.5c-.73-1-1.4-1.89-2-2.84a28.37,28.37,0,0,1-1.69-2.94,36.34,36.34,0,0,1-2.28-6.1L387.41,40.9h3.16v64.58h15.57c.22,1.24.36,2.38.44,3.43s.11,2.09.11,3.11,0,2.25-.11,3.26-.22,2.15-.44,3.38H359.31a31.59,31.59,0,0,1-.43-3.38c-.08-1-.11-2.1-.11-3.26s0-2,.11-3.11a31.77,31.77,0,0,1,.43-3.43Z" fill="#8dc63f"/><path d="M423.89,119.31c-.36-1.16-.67-2.32-.92-3.48a16.41,16.41,0,0,1-.39-3.6,19.76,19.76,0,0,1,1-5.77,30.61,30.61,0,0,0,10.73-2.18,25.26,25.26,0,0,0,8.06-5.17,26.92,26.92,0,0,0,5.39-7.35,33.27,33.27,0,0,0,2.94-8.71,20.19,20.19,0,0,1-2.34,2.78,17.16,17.16,0,0,1-3.27,2.5,18.11,18.11,0,0,1-4.41,1.85,21.33,21.33,0,0,1-5.77.71A25.48,25.48,0,0,1,426,89.31a21.24,21.24,0,0,1-7.46-4.68,22.38,22.38,0,0,1-5.12-7.84,29.85,29.85,0,0,1-1.9-11.17,26.67,26.67,0,0,1,2.34-11.49,25,25,0,0,1,15-13.39A31.73,31.73,0,0,1,439,39.05q13.61,0,20.8,8T467,70.85a63.68,63.68,0,0,1-2.62,18.57,43.06,43.06,0,0,1-7.95,15.14A39.26,39.26,0,0,1,443,115,48,48,0,0,1,423.89,119.31Zm15-40.62a11.71,11.71,0,0,0,8.66-3.21q3.21-3.21,3.21-9.64,0-6.86-3.1-10.51a10.39,10.39,0,0,0-8.33-3.65A11.4,11.4,0,0,0,431,55.06q-3.37,3.38-3.38,10.24,0,7.19,3.22,10.29A11.18,11.18,0,0,0,438.92,78.69Z" fill="#8dc63f"/><path d="M33.17,133.4H50.72A13.55,13.55,0,0,1,51,136a14,14,0,0,1-.25,2.71H39.45v6.7h8.94a13.87,13.87,0,0,1,.26,2.67,13.61,13.61,0,0,1-.26,2.71H39.45V159H51a13.45,13.45,0,0,1,.25,2.62,13.93,13.93,0,0,1-.25,2.71H33.17Z" fill="#f50"/><path d="M54.71,133.4a22.67,22.67,0,0,1,3.32-.26,21.52,21.52,0,0,1,3.31.26l7.09,17.72,7.31-17.72a15.86,15.86,0,0,1,3-.26,18.74,18.74,0,0,1,3.14.26l1.46,30.92a20.12,20.12,0,0,1-3.09.26,16.35,16.35,0,0,1-2.89-.26l-.77-21-6.28,14.53c-.4.06-.82.11-1.25.15a11.15,11.15,0,0,1-1.29.07c-.37,0-.74,0-1.11-.05a6.91,6.91,0,0,1-1.16-.17L59.62,143,59,164.32a14.71,14.71,0,0,1-2.67.26,16.48,16.48,0,0,1-2.84-.26Z" fill="#f50"/><path d="M100.17,138.74h-7.7a14,14,0,0,1-.26-2.71,13.56,13.56,0,0,1,.26-2.63h21.72a13.56,13.56,0,0,1,.26,2.63,14,14,0,0,1-.26,2.71h-7.7v25.58c-.52.06-1,.11-1.55.15s-1,.07-1.5.07-1,0-1.57,0a14.18,14.18,0,0,1-1.7-.17Z" fill="#f50"/><path d="M116.38,133.4h17.55a13.55,13.55,0,0,1,.25,2.63,14,14,0,0,1-.25,2.71H122.66v6.7h8.94a13.87,13.87,0,0,1,.26,2.67,13.61,13.61,0,0,1-.26,2.71h-8.94V159h11.57a13.45,13.45,0,0,1,.25,2.62,13.93,13.93,0,0,1-.25,2.71H116.38Z" fill="#f50"/><path d="M137.92,133.4a22.67,22.67,0,0,1,3.32-.26,21.52,21.52,0,0,1,3.31.26l7.09,17.72L159,133.4a15.86,15.86,0,0,1,3-.26,18.74,18.74,0,0,1,3.14.26l1.46,30.92a20.12,20.12,0,0,1-3.09.26,16.35,16.35,0,0,1-2.89-.26l-.77-21-6.28,14.53c-.4.06-.82.11-1.25.15a11.15,11.15,0,0,1-1.29.07c-.37,0-.74,0-1.11-.05a6.91,6.91,0,0,1-1.16-.17L142.83,143l-.6,21.28a14.71,14.71,0,0,1-2.67.26,16.48,16.48,0,0,1-2.84-.26Z" fill="#f50"/><path d="M170.05,133.27c1.32-.11,2.65-.2,4-.28s2.71-.1,4.08-.1a22.63,22.63,0,0,1,4.37.43,10.84,10.84,0,0,1,4,1.61,8.79,8.79,0,0,1,2.9,3.29,13.82,13.82,0,0,1,0,10.9,9.17,9.17,0,0,1-2.88,3.29,10.49,10.49,0,0,1-3.94,1.63,21.73,21.73,0,0,1-4.28.43c-.37,0-.72,0-1.05,0s-.64,0-.92-.06v9.93a13,13,0,0,1-1.6.17c-.51,0-1,0-1.5,0s-1,0-1.51,0a14.11,14.11,0,0,1-1.67-.17Zm6.28,15.92a6.65,6.65,0,0,0,1,.08h1.1a7.89,7.89,0,0,0,2.11-.28,4.75,4.75,0,0,0,1.82-.92,4.5,4.5,0,0,0,1.27-1.7,6.26,6.26,0,0,0,.48-2.6,6.71,6.71,0,0,0-.48-2.69,4.57,4.57,0,0,0-1.27-1.76,4.67,4.67,0,0,0-1.82-.95,7.89,7.89,0,0,0-2.11-.28l-.88,0c-.27,0-.67,0-1.18.11Z" fill="#f50"/><path d="M205.57,164.84a13.82,13.82,0,0,1-6-1.21,11.21,11.21,0,0,1-4.17-3.33,14.36,14.36,0,0,1-2.43-5,24,24,0,0,1-.8-6.34,24.41,24.41,0,0,1,.8-6.39,14.71,14.71,0,0,1,2.43-5.1,11.16,11.16,0,0,1,4.17-3.35,15.7,15.7,0,0,1,12,0,11.16,11.16,0,0,1,4.17,3.35,14.71,14.71,0,0,1,2.43,5.1,24.41,24.41,0,0,1,.8,6.39,24,24,0,0,1-.8,6.34,14.36,14.36,0,0,1-2.43,5,11.21,11.21,0,0,1-4.17,3.33A13.82,13.82,0,0,1,205.57,164.84Zm0-5.25q6.66,0,6.66-10.66c0-3.56-.53-6.22-1.61-8a5.43,5.43,0,0,0-5-2.67q-6.75,0-6.75,10.67T205.57,159.59Z" fill="#f50"/><path d="M229.65,133.4c1.26-.14,2.44-.26,3.55-.36s2.33-.15,3.67-.15a25,25,0,0,1,4.67.43,12.48,12.48,0,0,1,4.15,1.52,8.59,8.59,0,0,1,3,3,9,9,0,0,1,1.14,4.75,9.89,9.89,0,0,1-.43,3,9.16,9.16,0,0,1-1.1,2.31,9.28,9.28,0,0,1-1.44,1.69,9.45,9.45,0,0,1-1.46,1.14l-.73.48,7.52,13.07-1.8.17c-.63.06-1.28.09-1.94.09a20.27,20.27,0,0,1-3.22-.26l-8.09-14.36,1-.52c.41-.2.89-.46,1.47-.77a9,9,0,0,0,1.65-1.19,6.51,6.51,0,0,0,1.36-1.72,5.68,5.68,0,0,0-1-6.36,6.09,6.09,0,0,0-4-1.27,10,10,0,0,0-1.72.13v26.1c-.52.06-1,.11-1.55.15s-1,.07-1.5.07-1,0-1.55,0a14.06,14.06,0,0,1-1.68-.17Z" fill="#f50"/><path d="M253.47,133.4H271a13.56,13.56,0,0,1,.26,2.63,14,14,0,0,1-.26,2.71H259.75v6.7h8.95a14.67,14.67,0,0,1,.25,2.67,14.38,14.38,0,0,1-.25,2.71h-8.95V159h11.57a13.46,13.46,0,0,1,.26,2.62,13.92,13.92,0,0,1-.26,2.71H253.47Z" fill="#f50"/><path d="M281.34,133.4c.6-.08,1.17-.15,1.72-.19s1.15-.07,1.81-.07,1.13,0,1.67.07,1.15.11,1.81.19L298,164.32a24,24,0,0,1-3.44.26,19.5,19.5,0,0,1-3.18-.26l-1.72-6.19H279.45l-1.77,6.19a18.24,18.24,0,0,1-3,.26,19.28,19.28,0,0,1-3.14-.26Zm6.88,19.53-3.57-13-3.74,13Z" fill="#f50"/><path d="M299.36,133.4a19.33,19.33,0,0,1,3.05-.26,20.45,20.45,0,0,1,3.14.26v25.5h10.71c.08.49.14,1,.17,1.4s0,.87,0,1.27,0,.91,0,1.35-.09.91-.17,1.4h-16.9Z" fill="#f50"/></svg>